<?xml version="1.0" encoding="UTF-8" standalone="no"?><!DOCTYPE svg PUBLIC "-//W3C//DTD SVG 1.1//EN" "http://www.w3.org/Graphics/SVG/1.1/DTD/svg11.dtd"><svg width="100%" height="100%" viewBox="0 0 600 135" version="1.1" xmlns="http://www.w3.org/2000/svg" xmlns:xlink="http://www.w3.org/1999/xlink" xml:space="preserve" xmlns:serif="http://www.serif.com/" style="fill-rule:evenodd;clip-rule:evenodd;stroke-linejoin:round;stroke-miterlimit:2;"><rect id="Artboard2" x="0" y="0" width="600" height="134.017" style="fill:none;"/><clipPath id="_clip1"><rect x="0" y="0" width="600" height="134.017"/></clipPath><g clip-path="url(#_clip1)"><g><path d="M0.192,11.48c-0,-4.052 2.162,-7.796 5.671,-9.822c0.565,-0.326 1.126,-0.65 1.66,-0.958c2.196,-1.269 4.903,-1.269 7.1,-0c13.424,7.75 61.156,35.308 77.67,44.843c3.509,2.026 5.671,5.77 5.671,9.822c-0,0.652 -0,1.3 -0,1.917c-0,2.536 -1.353,4.88 -3.55,6.148c-13.424,7.751 -61.156,35.309 -77.67,44.843c-3.509,2.026 -7.833,2.026 -11.342,0c-0.565,-0.326 -1.126,-0.65 -1.66,-0.958c-2.197,-1.268 -3.55,-3.612 -3.55,-6.149c-0,-15.5 -0,-70.617 -0,-89.686Z" style="fill:url(#_Linear2);"/><g><path d="M150.355,27.233c0.16,2.902 0.313,5.707 0.459,8.416c0.236,4.37 0.426,8.275 0.57,11.715c0.145,3.44 0.217,6.225 0.217,8.355l-0,49.688l-18.268,-0l0,-100.069l20.266,-0l34.631,55.107c1.429,2.285 2.953,4.871 4.572,7.758c1.619,2.887 3.297,6.114 5.034,9.681c0.896,1.841 1.79,3.786 2.681,5.835c-0.134,-1.836 -0.258,-3.693 -0.369,-5.572c-0.236,-3.966 -0.416,-7.729 -0.541,-11.288c-0.125,-3.56 -0.188,-6.571 -0.188,-9.033l0,-52.488l18.225,-0l-0,100.069l-20.353,-0l-31.214,-49.602c-1.962,-3.19 -3.823,-6.329 -5.583,-9.417c-1.76,-3.089 -3.646,-6.584 -5.658,-10.484c-1.313,-2.547 -2.807,-5.437 -4.481,-8.671Z" style="fill:url(#_Linear3);"/><path d="M246.806,72.734c0.142,4.152 0.939,7.699 2.393,10.641c1.611,3.26 3.873,5.717 6.787,7.371c2.913,1.654 6.291,2.481 10.134,2.481c2.552,-0 4.871,-0.365 6.959,-1.095c2.087,-0.73 3.883,-1.819 5.387,-3.269c1.505,-1.45 2.654,-3.242 3.45,-5.375l16.038,3.321c-1.197,4.019 -3.255,7.538 -6.177,10.556c-2.921,3.019 -6.567,5.367 -10.938,7.043c-4.371,1.676 -9.356,2.514 -14.957,2.514c-7.526,0 -14.017,-1.584 -19.471,-4.751c-5.455,-3.167 -9.648,-7.639 -12.58,-13.415c-2.932,-5.775 -4.398,-12.586 -4.398,-20.432c0,-7.717 1.449,-14.497 4.346,-20.338c2.897,-5.841 6.995,-10.402 12.294,-13.683c5.3,-3.281 11.521,-4.922 18.666,-4.922c4.597,0 8.961,0.741 13.092,2.223c4.131,1.482 7.795,3.762 10.991,6.84c3.197,3.077 5.712,7.003 7.544,11.778c1.832,4.775 2.748,10.463 2.748,17.065l0,5.447l-52.308,0Zm0.069,-11.851l35.207,-0c-0.268,-2.818 -0.869,-5.369 -1.805,-7.653c-1.311,-3.2 -3.255,-5.692 -5.833,-7.476c-2.577,-1.785 -5.78,-2.677 -9.609,-2.677c-3.829,-0 -7.089,0.906 -9.781,2.72c-2.692,1.813 -4.744,4.233 -6.155,7.261c-1.117,2.396 -1.792,5.005 -2.024,7.825Z" style="fill:url(#_Linear4);"/><path d="M339.177,54.533l15.642,-24.211l18.526,-0l-24.255,37.542l24.255,37.543l-18.526,-0l-15.642,-24.212l-15.642,24.212l-18.526,-0l24.255,-37.543l-24.255,-37.542l18.526,-0l15.642,24.211Z" style="fill:url(#_Linear5);"/><path d="M389.894,44l-10.654,0l-0,-13.678l10.654,-0l0,-17.865l17.457,-0l-0,17.865l14.527,-0l0,13.678l-14.527,0l-0,40.262c-0,2.713 0.582,4.706 1.746,5.976c1.164,1.27 3.085,1.906 5.764,1.906c0.778,-0 1.825,-0.094 3.14,-0.281c1.315,-0.187 2.377,-0.37 3.185,-0.549l2.75,13.473c-1.914,0.592 -3.871,1.012 -5.872,1.26c-2,0.248 -3.937,0.372 -5.811,0.372c-7.185,0 -12.708,-1.789 -16.568,-5.367c-3.861,-3.578 -5.791,-8.676 -5.791,-15.294l0,-41.758Z" style="fill:url(#_Linear6);"/><path d="M437.136,105.407l-0,-75.085l17.462,-0l-0,75.085l-17.462,-0Zm8.731,-85.697c-2.776,0 -5.16,-0.94 -7.153,-2.821c-1.992,-1.88 -2.988,-4.119 -2.988,-6.716c-0,-2.686 0.996,-4.958 2.988,-6.816c1.993,-1.858 4.377,-2.788 7.153,-2.788c2.821,0 5.227,0.93 7.22,2.788c1.992,1.858 2.988,4.108 2.988,6.749c0,2.642 -0.996,4.903 -2.988,6.783c-1.993,1.881 -4.399,2.821 -7.22,2.821Z" style="fill:url(#_Linear7);"/><path d="M481.624,44l-13.759,0l-0,-13.678l13.759,-0l0,-7.178c0,-5.004 1.047,-9.171 3.141,-12.5c2.094,-3.33 4.912,-5.83 8.454,-7.501c3.543,-1.671 7.458,-2.506 11.746,-2.506c3.074,-0 5.798,0.247 8.169,0.741c2.372,0.494 4.119,0.935 5.241,1.322l-3.552,13.582c-0.756,-0.24 -1.686,-0.478 -2.79,-0.715c-1.104,-0.236 -2.386,-0.354 -3.846,-0.354c-3.28,-0 -5.626,0.802 -7.038,2.407c-1.411,1.605 -2.117,3.89 -2.117,6.855l0,5.847l16.24,-0l-0,13.678l-16.24,0l0,61.407l-17.408,-0l0,-61.407Z" style="fill:url(#_Linear8);"/><path d="M561.787,90.873c0.443,-1.784 0.882,-3.556 1.317,-5.317c1.195,-4.832 2.604,-9.634 4.229,-14.406l14.184,-40.828l18.483,-0l-32.251,84.729c-1.522,4.017 -3.431,7.442 -5.727,10.275c-2.296,2.832 -5.092,4.989 -8.388,6.47c-3.296,1.481 -7.213,2.221 -11.75,2.221c-2.488,0 -4.773,-0.181 -6.855,-0.542c-2.083,-0.362 -3.704,-0.788 -4.862,-1.28l4.104,-13.619l2.074,0.554c2.64,0.675 4.991,0.859 7.055,0.552c2.063,-0.308 3.787,-1.207 5.174,-2.699c1.386,-1.492 2.369,-3.666 2.95,-6.523l1.109,-4.771l-28.364,-75.367l18.671,-0l13.736,40.828c1.604,4.833 2.92,9.65 3.948,14.451c0.373,1.744 0.761,3.501 1.163,5.272Z" style="fill:url(#_Linear9);"/></g></g></g><defs><linearGradient id="_Linear2" x1="0" y1="0" x2="1" y2="0" gradientUnits="userSpaceOnUse" gradientTransform="matrix(600,0,0,600,-4.26326e-14,66.8828)"><stop offset="0" style="stop-color:#f300ff;stop-opacity:1"/><stop offset="1" style="stop-color:#3f7af9;stop-opacity:1"/></linearGradient><linearGradient id="_Linear3" x1="0" y1="0" x2="1" y2="0" gradientUnits="userSpaceOnUse" gradientTransform="matrix(600,0,0,600,-1.13687e-13,66.8828)"><stop offset="0" style="stop-color:#f300ff;stop-opacity:1"/><stop offset="1" style="stop-color:#3f7af9;stop-opacity:1"/></linearGradient><linearGradient id="_Linear4" x1="0" y1="0" x2="1" y2="0" gradientUnits="userSpaceOnUse" gradientTransform="matrix(600,0,0,600,-1.13687e-13,66.8828)"><stop offset="0" style="stop-color:#f300ff;stop-opacity:1"/><stop offset="1" style="stop-color:#3f7af9;stop-opacity:1"/></linearGradient><linearGradient id="_Linear5" x1="0" y1="0" x2="1" y2="0" gradientUnits="userSpaceOnUse" gradientTransform="matrix(600,0,0,600,-5.68434e-14,66.8828)"><stop offset="0" style="stop-color:#f300ff;stop-opacity:1"/><stop offset="1" style="stop-color:#3f7af9;stop-opacity:1"/></linearGradient><linearGradient id="_Linear6" x1="0" y1="0" x2="1" y2="0" gradientUnits="userSpaceOnUse" gradientTransform="matrix(600,0,0,600,0,66.8828)"><stop offset="0" style="stop-color:#f300ff;stop-opacity:1"/><stop offset="1" style="stop-color:#3f7af9;stop-opacity:1"/></linearGradient><linearGradient id="_Linear7" x1="0" y1="0" x2="1" y2="0" gradientUnits="userSpaceOnUse" gradientTransform="matrix(600,0,0,600,0,66.8828)"><stop offset="0" style="stop-color:#f300ff;stop-opacity:1"/><stop offset="1" style="stop-color:#3f7af9;stop-opacity:1"/></linearGradient><linearGradient id="_Linear8" x1="0" y1="0" x2="1" y2="0" gradientUnits="userSpaceOnUse" gradientTransform="matrix(600,0,0,600,-5.68434e-14,66.8828)"><stop offset="0" style="stop-color:#f300ff;stop-opacity:1"/><stop offset="1" style="stop-color:#3f7af9;stop-opacity:1"/></linearGradient><linearGradient id="_Linear9" x1="0" y1="0" x2="1" y2="0" gradientUnits="userSpaceOnUse" gradientTransform="matrix(600,0,0,600,-1.13687e-13,66.8828)"><stop offset="0" style="stop-color:#f300ff;stop-opacity:1"/><stop offset="1" style="stop-color:#3f7af9;stop-opacity:1"/></linearGradient></defs></svg>