<svg width="364" height="364" viewBox="0 0 364 364" fill="none" xmlns="http://www.w3.org/2000/svg">
<path d="M312 0C340.719 0 364 23.2812 364 52V312C364 340.719 340.719 364 312 364H52C23.2812 364 0 340.719 0 312V52C0 23.2812 23.2812 1.83614e-06 52 0H312ZM96.5 87C89.4629 87 83.0641 90.0227 78.5107 94.834L78.0752 95.3057C73.5486 100.335 71.25 106.833 71.25 113.306V250.527C71.25 257 73.5485 263.499 78.0752 268.528C82.6512 273.613 89.2358 276.833 96.5 276.833H153.5L154.03 276.848C156.697 276.993 159.554 278.238 161.945 280.895C164.464 283.693 166.143 287.761 166.245 292.309L166.25 292.75L166.255 293.156C166.47 301.667 173.437 308.5 182 308.5C190.563 308.5 197.53 301.667 197.745 293.156L197.75 292.75C197.75 288.024 199.455 283.783 202.055 280.895C204.605 278.061 207.686 276.833 210.5 276.833H267.5C274.764 276.833 281.349 273.613 285.925 268.528C290.452 263.499 292.75 257 292.75 250.527V113.306C292.75 107.035 290.592 100.741 286.342 95.7812L285.925 95.3057L285.489 94.834C281.083 90.1778 274.948 87.1972 268.179 87.0098L267.5 87H220C205.462 87 191.877 93.3081 182 103.95C172.281 93.4777 158.97 87.2022 144.694 87.0049L144 87H96.5ZM144 118.5L144.5 118.507C149.676 118.648 154.966 120.99 159.163 125.652C163.407 130.368 166.079 137.016 166.242 144.269L166.25 144.973V247.342C162.186 246.033 157.9 245.333 153.5 245.333H102.75V118.5H144ZM261.25 118.5V245.333H210.5C206.1 245.333 201.814 246.033 197.75 247.342V144.973C197.75 137.448 200.456 130.52 204.837 125.652C209.169 120.839 214.667 118.5 220 118.5H261.25Z" fill="#111111"/>
</svg>
