<svg width="201" height="58" viewBox="0 0 201 58" fill="none" xmlns="http://www.w3.org/2000/svg">
<path d="M176.534 57.6603C175.499 57.6603 174.54 57.5763 173.659 57.4084C172.791 57.2545 172.099 57.0726 171.581 56.8627L173.344 50.944C174.449 51.2658 175.436 51.4197 176.303 51.4057C177.171 51.3917 177.933 51.1189 178.591 50.5872C179.263 50.0694 179.829 49.2019 180.291 47.9846L180.942 46.2425L169.251 13.3325H177.311L184.741 37.6792H185.076L192.527 13.3325H200.608L187.7 49.4748C187.098 51.1818 186.301 52.644 185.307 53.8614C184.314 55.0927 183.097 56.0302 181.655 56.6738C180.228 57.3315 178.521 57.6603 176.534 57.6603Z" fill="#1A3353"/>
<path d="M165.861 13.3326V19.2094H146.804V13.3326H165.861ZM151.568 45.571V10.2892C151.568 8.12042 152.016 6.3154 152.911 4.87419C153.821 3.43297 155.038 2.35556 156.563 1.64195C158.089 0.928338 159.782 0.571533 161.643 0.571533C162.958 0.571533 164.126 0.676477 165.148 0.886364C166.169 1.09625 166.925 1.28515 167.414 1.45306L165.903 7.32985C165.581 7.2319 165.176 7.13396 164.686 7.03601C164.196 6.92407 163.651 6.8681 163.049 6.8681C161.636 6.8681 160.635 7.21092 160.048 7.89654C159.474 8.56818 159.187 9.53365 159.187 10.793V45.571H151.568Z" fill="#1A3353"/>
<path d="M134.122 45.571V13.3326H141.719V45.571H134.122ZM137.941 8.75705C136.738 8.75705 135.703 8.35827 134.835 7.5607C133.968 6.74914 133.534 5.77667 133.534 4.64329C133.534 3.49592 133.968 2.52345 134.835 1.72588C135.703 0.914323 136.738 0.508545 137.941 0.508545C139.159 0.508545 140.194 0.914323 141.048 1.72588C141.915 2.52345 142.349 3.49592 142.349 4.64329C142.349 5.77667 141.915 6.74914 141.048 7.5607C140.194 8.35827 139.159 8.75705 137.941 8.75705Z" fill="#1A3353"/>
<path d="M127.767 13.3326V19.2094H109.234V13.3326H127.767ZM113.81 5.60876H121.407V35.8743C121.407 36.8957 121.561 37.6793 121.869 38.225C122.191 38.7567 122.611 39.1205 123.129 39.3164C123.646 39.5123 124.22 39.6102 124.85 39.6102C125.325 39.6102 125.759 39.5753 126.151 39.5053C126.557 39.4353 126.865 39.3724 127.074 39.3164L128.355 45.2562C127.949 45.3961 127.368 45.55 126.613 45.7179C125.871 45.8858 124.962 45.9838 123.884 46.0117C121.981 46.0677 120.267 45.7809 118.742 45.1512C117.217 44.5076 116.006 43.5141 115.111 42.1708C114.229 40.8276 113.796 39.1485 113.81 37.1336V5.60876Z" fill="#1A3353"/>
<path d="M84.6357 13.3325L91.1421 25.233L97.7535 13.3325H105.792L96.0745 29.4517L105.96 45.5709H97.9634L91.1421 33.9642L84.3838 45.5709H76.3242L86.1469 29.4517L76.5761 13.3325H84.6357Z" fill="#1A3353"/>
<path d="M58.3527 46.2007C55.1204 46.2007 52.3289 45.5291 49.9782 44.1858C47.6415 42.8285 45.8435 40.9116 44.5842 38.4349C43.3248 35.9443 42.6952 33.0129 42.6952 29.6407C42.6952 26.3245 43.3248 23.4141 44.5842 20.9095C45.8575 18.3909 47.6345 16.4319 49.9153 15.0327C52.196 13.6195 54.8756 12.9128 57.9539 12.9128C59.9408 12.9128 61.8158 13.2347 63.5788 13.8783C65.3558 14.508 66.923 15.4874 68.2802 16.8167C69.6515 18.146 70.7289 19.8391 71.5125 21.8959C72.2961 23.9388 72.6878 26.3735 72.6878 29.2V31.5297H46.2632V26.4085H65.4048C65.3908 24.9533 65.076 23.659 64.4603 22.5256C63.8447 21.3782 62.9841 20.4757 61.8787 19.8181C60.7873 19.1604 59.514 18.8316 58.0588 18.8316C56.5057 18.8316 55.1414 19.2094 53.966 19.965C52.7907 20.7066 51.8742 21.6861 51.2165 22.9034C50.5729 24.1067 50.2441 25.429 50.2301 26.8702V31.3408C50.2301 33.2158 50.5729 34.8249 51.2585 36.1682C51.9441 37.4974 52.9026 38.5189 54.134 39.2325C55.3653 39.9321 56.8065 40.2819 58.4576 40.2819C59.563 40.2819 60.5635 40.128 61.459 39.8202C62.3545 39.4983 63.131 39.0296 63.7887 38.4139C64.4463 37.7983 64.9431 37.0357 65.2789 36.1262L72.373 36.9238C71.9253 38.7987 71.0717 40.4358 69.8124 41.8351C68.5671 43.2203 66.972 44.2977 65.027 45.0673C63.0821 45.8229 60.8573 46.2007 58.3527 46.2007Z" fill="#1A3353"/>
<path d="M35.9317 2.5863V45.5709H29.0055L8.75153 16.2918H8.39473V45.5709H0.607971V2.5863H7.57617L27.8091 31.8863H28.1869V2.5863H35.9317Z" fill="#1A3353"/>
</svg>
