<?xml version="1.0" encoding="UTF-8" standalone="no"?><!DOCTYPE svg PUBLIC "-//W3C//DTD SVG 1.1//EN" "http://www.w3.org/Graphics/SVG/1.1/DTD/svg11.dtd"><svg width="100%" height="100%" viewBox="0 0 99 135" version="1.1" xmlns="http://www.w3.org/2000/svg" xmlns:xlink="http://www.w3.org/1999/xlink" xml:space="preserve" xmlns:serif="http://www.serif.com/" style="fill-rule:evenodd;clip-rule:evenodd;stroke-linejoin:round;stroke-miterlimit:2;"><rect id="Artboard3" x="0" y="0" width="98.423" height="134.269" style="fill:none;"/><g><path d="M0,12.48c-0,-4.052 2.162,-7.796 5.671,-9.822c0.565,-0.326 1.126,-0.65 1.66,-0.958c2.197,-1.269 4.903,-1.269 7.1,-0c13.424,7.75 61.156,35.308 77.67,44.843c3.509,2.026 5.671,5.77 5.671,9.822c-0,0.652 -0,1.3 -0,1.917c-0,2.536 -1.353,4.88 -3.55,6.148c-13.424,7.751 -61.156,35.309 -77.67,44.843c-3.509,2.026 -7.833,2.026 -11.342,0c-0.565,-0.326 -1.126,-0.65 -1.66,-0.958c-2.197,-1.268 -3.55,-3.612 -3.55,-6.149c0,-15.5 0,-70.617 0,-89.686Z" style="fill:url(#_Linear1);"/></g><defs><linearGradient id="_Linear1" x1="0" y1="0" x2="1" y2="0" gradientUnits="userSpaceOnUse" gradientTransform="matrix(600,0,0,600,-0.191912,67.8828)"><stop offset="0" style="stop-color:#f300ff;stop-opacity:1"/><stop offset="1" style="stop-color:#3f7af9;stop-opacity:1"/></linearGradient></defs></svg>